<?xml version="1.0" encoding="utf-8"?>
<!-- Generator: Adobe Illustrator 16.0.3, SVG Export Plug-In . SVG Version: 6.00 Build 0)  -->
<!DOCTYPE svg PUBLIC "-//W3C//DTD SVG 1.1//EN" "http://www.w3.org/Graphics/SVG/1.1/DTD/svg11.dtd">
<svg version="1.1" id="Layer_1" xmlns="http://www.w3.org/2000/svg" xmlns:xlink="http://www.w3.org/1999/xlink" x="0px" y="0px"
	 width="569.047px" height="162.035px" viewBox="0 0 569.047 162.035" enable-background="new 0 0 569.047 162.035"
	 xml:space="preserve">
<g id="red_x5F_BG">
	<g>
		<g>
			<path id="SVGID_1_" fill="#FFFFFF" d="M566.047,130.993c0,6.56-4.873,12.378-11.5,12.378h-514c-6.627,0-12.5-5.818-12.5-12.378
				V57.747c0-6.56,5.873-11.375,12.5-11.375h514c6.627,0,11.5,4.815,11.5,11.375V130.993z"/>
		</g>
		<g>
			<g>
				<defs>
					<path id="SVGID_2_" d="M566.047,130.993c0,6.56-4.873,12.378-11.5,12.378h-514c-6.627,0-12.5-5.818-12.5-12.378V57.747
						c0-6.56,5.873-11.375,12.5-11.375h514c6.627,0,11.5,4.815,11.5,11.375V130.993z"/>
				</defs>
				<clipPath id="SVGID_3_">
					<use xlink:href="#SVGID_2_"  overflow="visible"/>
				</clipPath>
				
					<rect x="511.547" y="45.871" clip-path="url(#SVGID_3_)" fill="#FF0000" stroke="#000000" stroke-width="5" stroke-miterlimit="10" width="55" height="97"/>
			</g>
		</g>
		<g>
			<g>
				<defs>
					<path id="SVGID_4_" d="M566.047,130.993c0,6.56-4.873,12.378-11.5,12.378h-514c-6.627,0-12.5-5.818-12.5-12.378V57.747
						c0-6.56,5.873-11.375,12.5-11.375h514c6.627,0,11.5,4.815,11.5,11.375V130.993z"/>
				</defs>
				<clipPath id="SVGID_5_">
					<use xlink:href="#SVGID_4_"  overflow="visible"/>
				</clipPath>
				
					<rect x="28.548" y="45.871" clip-path="url(#SVGID_5_)" fill="#FF0000" stroke="#000000" stroke-width="5" stroke-miterlimit="10" width="100" height="97"/>
			</g>
		</g>
		<g>
			<g>
				<defs>
					<path id="SVGID_6_" d="M566.047,130.993c0,6.56-4.873,12.378-11.5,12.378h-514c-6.627,0-12.5-5.818-12.5-12.378V57.747
						c0-6.56,5.873-11.375,12.5-11.375h514c6.627,0,11.5,4.815,11.5,11.375V130.993z"/>
				</defs>
				<clipPath id="SVGID_7_">
					<use xlink:href="#SVGID_6_"  overflow="visible"/>
				</clipPath>
				<path clip-path="url(#SVGID_7_)" fill="none" d="M566.047,130.993c0,6.56-4.873,12.378-11.5,12.378h-514
					c-6.627,0-12.5-5.818-12.5-12.378V57.747c0-6.56,5.873-11.375,12.5-11.375h514c6.627,0,11.5,4.815,11.5,11.375V130.993z"/>
			</g>
		</g>
	</g>
</g>
<g id="white_x5F_BG">
	<rect x="128.048" y="46.371" fill="#FFFFFF" stroke="#000000" stroke-width="4" stroke-miterlimit="10" width="383" height="96"/>
</g>
<g id="border">
	<path fill="none" stroke="#000000" stroke-width="5" stroke-miterlimit="10" d="M566.547,130.993c0,6.56-5.373,11.878-12,11.878
		h-514c-6.627,0-12-5.318-12-11.878V57.747c0-6.56,5.373-11.875,12-11.875h514c6.627,0,12,5.315,12,11.875V130.993z"/>
</g>
<g id="text">
	<text transform="matrix(1 0 0 1 27.0166 41.3711)" font-family="'TimeBurner'" font-size="19">P</text>
	
		<text transform="matrix(1 0 0 1 27.0166 41.3711)" fill="none" stroke="#000000" stroke-miterlimit="10" font-family="'TimeBurner'" font-size="19">P</text>
	<text transform="matrix(1 0 0 1 36.7456 41.3711)" font-family="'TimeBurner'" font-size="16">ATCHED </text>
	
		<text transform="matrix(1 0 0 1 36.7456 41.3711)" fill="none" stroke="#000000" stroke-miterlimit="10" font-family="'TimeBurner'" font-size="16">ATCHED </text>
	<text transform="matrix(1 0 0 1 94.8716 41.3711)" font-family="'TimeBurner'" font-size="20">W</text>
	
		<text transform="matrix(1 0 0 1 94.8716 41.3711)" fill="none" stroke="#000000" stroke-miterlimit="10" font-family="'TimeBurner'" font-size="20">W</text>
	<text transform="matrix(1 0 0 1 111.5327 41.3711)" font-family="'TimeBurner'" font-size="16">ITH</text>
	
		<text transform="matrix(1 0 0 1 111.5327 41.3711)" fill="none" stroke="#000000" stroke-miterlimit="10" font-family="'TimeBurner'" font-size="16">ITH</text>
	<line fill="none" stroke="#000000" stroke-width="5" stroke-miterlimit="10" x1="128.548" y1="45.371" x2="128.548" y2="143.371"/>
	<line fill="none" stroke="#000000" stroke-width="5" stroke-miterlimit="10" x1="511.547" y1="45.371" x2="511.547" y2="143.371"/>
	<rect x="114.399" y="60.676" fill="none" width="421" height="94.145"/>
	<text transform="matrix(1 0 0 1 151.0049 128.2656)" font-family="'TimeBurner'" font-size="90">M</text>
	
		<text transform="matrix(1 0 0 1 151.0049 128.2656)" fill="none" stroke="#000000" stroke-width="4" stroke-miterlimit="10" font-family="'TimeBurner'" font-size="90">M</text>
	<text transform="matrix(1 0 0 1 225.9751 128.2656)" font-family="'TimeBurner'" font-size="64">OD</text>
	
		<text transform="matrix(1 0 0 1 225.9751 128.2656)" fill="none" stroke="#000000" stroke-width="4" stroke-miterlimit="10" font-family="'TimeBurner'" font-size="64">OD</text>
	<text transform="matrix(1 0 0 1 303.0928 128.2656)" font-family="'TimeBurner'" font-size="90">C</text>
	
		<text transform="matrix(1 0 0 1 303.0928 128.2656)" fill="none" stroke="#000000" stroke-width="4" stroke-miterlimit="10" font-family="'TimeBurner'" font-size="90">C</text>
	<text transform="matrix(1 0 0 1 355.5645 128.2656)" font-family="'TimeBurner'" font-size="64">HECK</text>
	
		<text transform="matrix(1 0 0 1 355.5645 128.2656)" fill="none" stroke="#000000" stroke-width="4" stroke-miterlimit="10" font-family="'TimeBurner'" font-size="64">HECK</text>
	<rect x="526.549" y="41.371" fill="none" width="33.166" height="83.451"/>
	<text transform="matrix(0 -1 1 0 553.584 124.8223)" font-family="'TimeBurner'" font-size="36">v 1.8</text>
	
		<text transform="matrix(0 -1 1 0 553.584 124.8223)" fill="none" stroke="#000000" stroke-miterlimit="10" font-family="'TimeBurner'" font-size="36">v 1.8</text>
</g>
<g id="checkmark">
	<g>
		<g>
			<path d="M124.711,77.759c4.258-5.525,8.816-11.002,13.581-16.403L125.927,60.6l13.263-0.27c0.033-0.037,0.064-0.074,0.098-0.111
				l31.901-0.514l-30.294-1.283c8.576-9.521,17.773-18.779,27.145-27.604l65.397-0.727l-63.652-0.909
				c0.003-0.003,0.006-0.006,0.009-0.009l-20.773-0.153l21.046-0.099c7.109-6.63,14.298-13.006,21.371-19.048l15.99-1.231
				l-13.706-0.71c0.788-0.667,1.569-1.321,2.354-1.98L175.74,4.829l21.969-0.251c0.007-0.006,0.014-0.011,0.021-0.017l29.087-0.686
				l-27.265-0.833c1.208-1.003,2.412-1.999,3.608-2.979c-4.168-0.142-15.36,0-22.103,0C147.011,21.572,99.993,71.086,78.642,102.734
				c-5.164-6.813-10.961-12.31-16.982-16.752l17.487-1.155l-19.543-0.321c-0.007-0.005-0.014-0.009-0.021-0.014l-12.286-0.194
				l10.855-0.769c-2.247-1.491-4.513-2.854-6.779-4.084l10.786-0.733l-13.653-0.758c-3.611-1.802-7.195-3.295-10.679-4.545
				l-15.816-0.894l13.495-0.142l27.245-0.761l-33.954-1.001c-0.8-0.209-1.593-0.41-2.369-0.595C18.326,71.841,8.721,74.109,0,76.201
				c57.037,18.163,71.776,57.885,74.05,79.285c5.03-1.318,12.252-3.187,18.455-4.797c0.037-1.853,0.174-3.715,0.365-5.586
				l-13.843-0.608l13.925-0.271c0.002-0.016,0.002-0.029,0.004-0.043l33.127-0.938l-32.939-0.564
				c1.345-9.951,4.753-20.15,9.709-30.41l-28.555-1.142l29.03,0.138c0.004-0.01,0.007-0.018,0.011-0.022l69.092-0.591l-68.327-0.924
				c5.013-9.879,11.43-19.793,18.797-29.579L98.89,79.19l24.64,0.114c0.003-0.005,0.006-0.009,0.009-0.013l64.971-1.533
				L124.711,77.759L124.711,77.759z"/>
		</g>
	</g>
</g>
</svg>
